<?xml version="1.0" encoding="utf-8"?>
<!-- Generator: Adobe Illustrator 22.0.0, SVG Export Plug-In . SVG Version: 6.00 Build 0)  -->
<svg version="1.1" id="Capa_1" xmlns="http://www.w3.org/2000/svg" xmlns:xlink="http://www.w3.org/1999/xlink" x="0px" y="0px"
	 viewBox="0 0 1200 1000" style="enable-background:new 0 0 1200 1000;" xml:space="preserve">
<style type="text/css">
	.st0{fill:#011046;}
	.st1{fill:#725BFF;}
	.st2{fill:#FF7480;}
	.st3{fill:#28E8A3;}
	.st4{fill:#FBCE13;}
	.st5{fill:#11D9ED;}
</style>
<circle class="st0" cx="198.4" cy="121" r="113"/>
<circle class="st0" cx="1000.7" cy="121" r="113"/>
<polygon class="st1" points="342.4,638.1 299.2,594.9 299.7,336.6 471.8,508.6 "/>
<polygon class="st2" points="860,638.1 902.3,595.8 902.7,336.6 730.6,508.6 "/>
<rect x="509.8" y="676" transform="matrix(0.7071 -0.7071 0.7071 0.7071 -366.5704 649.939)" class="st3" width="183" height="183"/>
<rect x="639.1" y="546.5" transform="matrix(0.7071 -0.7071 0.7071 0.7071 -237.1883 703.4771)" class="st4" width="183" height="183"/>
<rect x="380.3" y="546.6" transform="matrix(0.7071 -0.7071 0.7071 0.7071 -313.0128 520.5104)" class="st5" width="183" height="183"/>
<rect x="902.3" y="336.6" class="st0" width="196.8" height="653.4"/>
<rect x="102.5" y="336.6" class="st0" width="196.8" height="653.4"/>
</svg>
