<svg width="111" height="85" viewBox="0 0 111 85" fill="none" xmlns="http://www.w3.org/2000/svg">
	<path fill-rule="evenodd" clip-rule="evenodd" d="M11.9583 7.27588C11.9583 5.99788 12.9948 4.94255 14.25 4.94255H96.75C98.0052 4.94255 99.0417 5.99788 99.0417 7.27588V65.6092H103.625V7.27588C103.625 3.42055 100.536 0.275879 96.75 0.275879H14.25C10.4635 0.275879 7.375 3.42055 7.375 7.27588V65.6092H11.9583V7.27588ZM47.2826 67.9425H0.5V72.6092C0.5 79.0312 5.65101 84.2759 11.9583 84.2759H99.0417C105.349 84.2759 110.5 79.0312 110.5 72.6092V67.9425H66.0091L63.7174 70.2759H49.5742L47.2826 67.9425ZM11.9583 79.6092C8.18232 79.6092 5.08333 76.4539 5.08333 72.6092H45.3841L47.6758 74.9425H65.6159L67.9076 72.6092H105.917C105.917 76.4539 102.818 79.6092 99.0417 79.6092H11.9583Z" fill="url(#paint0_linear_770_504)"/>
	<path fill-rule="evenodd" clip-rule="evenodd" d="M21.1248 7.27588H16.5415V16.6092H27.0321C27.2949 17.3246 27.5958 18.036 27.9339 18.7432L20.6339 26.1759L30.2915 36.009L37.5427 28.626C38.2253 28.9765 38.9408 29.2832 39.6873 29.5476V39.9425H53.4373V29.2612C54.14 28.9936 54.8386 28.6872 55.5332 28.343L62.8332 35.7757L72.4907 25.9425L65.2396 18.5595C65.5838 17.8645 65.885 17.136 66.1447 16.3759H76.1248V7.27588H71.5415V11.7092H62.6481L62.2141 13.4766C61.8105 15.1205 61.2197 16.5002 60.4681 17.6482L59.4259 19.2399L66.0089 25.9425L62.8332 29.176L56.3409 22.5658L54.8212 23.45C53.36 24.3001 51.9254 24.9224 50.5161 25.3323L48.854 25.8158V35.2759H44.2707V25.9874L42.5348 25.5455C40.9203 25.1346 39.5652 24.5331 38.4377 23.7678L36.8745 22.7067L30.2915 29.4094L27.1157 26.1759L33.608 19.5656L32.7396 18.0182C31.9046 16.5305 31.2935 15.0697 30.8908 13.6349L30.4159 11.9425H21.1248V7.27588ZM46.3332 16.6092C41.1717 16.6092 37.1665 12.5312 37.1665 7.27588H41.7498C41.7498 9.95388 43.703 11.9425 46.3332 11.9425C48.9633 11.9425 50.9165 9.95388 50.9165 7.27588H55.4998C55.4998 12.5312 51.4947 16.6092 46.3332 16.6092ZM77.2388 37.6092H65.8442L64.8645 45.8388C64.6553 45.9189 64.4546 46.0025 64.2623 46.0873L57.823 41.0439L49.7066 49.308L54.6788 55.8895C54.6075 56.0663 54.538 56.2453 54.4714 56.4251L46.3332 57.1784V65.6092H50.9165V61.44L58.0158 60.7829L58.4106 59.1751C58.5878 58.4535 58.9748 57.4504 59.3829 56.6194L60.025 55.3119L55.7931 49.7104L58.2183 47.2411L63.7197 51.55L65.0039 50.8962C65.9411 50.4191 66.6023 50.0946 67.4076 49.9306L69.0336 49.5994L69.9055 42.2759H73.1775L74.0395 49.5169L75.569 49.9062C76.2778 50.0866 77.263 50.4807 78.0791 50.8962L79.3633 51.55L84.8647 47.2411L87.2899 49.7104L83.058 55.3119L83.7001 56.6194C84.1687 57.5736 84.4874 58.2469 84.6485 59.0668L84.9841 60.7752L92.1665 61.44V65.6092H96.7498V57.1784L88.6491 56.4286C88.576 56.2332 88.5001 56.0451 88.4232 55.8643L93.3764 49.308L85.26 41.0439L78.796 46.1066C78.607 46.0275 78.4154 45.9508 78.2232 45.8775L77.2388 37.6092ZM71.5415 53.9425C66.38 53.9425 62.3748 58.0205 62.3748 63.2759V65.6092H66.9582V63.2759C66.9582 60.5979 68.9113 58.6092 71.5415 58.6092C74.1717 58.6092 76.1248 60.5979 76.1248 63.2759V65.6092H80.7082V63.2759C80.7082 58.0205 76.703 53.9425 71.5415 53.9425Z" fill="white"/>
	<defs>
		<linearGradient id="paint0_linear_770_504" x1="0.5" y1="0.275879" x2="81.5357" y2="106.394" gradientUnits="userSpaceOnUse">
			<stop offset="0.291667" stop-color="#11EEA9"/>
			<stop offset="0.703125" stop-color="#0395FC"/>
			<stop offset="1" stop-color="#0054FF"/>
		</linearGradient>
	</defs>
</svg>