<?xml version="1.0" encoding="UTF-8"?>
<svg xmlns="http://www.w3.org/2000/svg" width="94" height="93" viewBox="0 0 94 93" fill="none">
  <path d="M16.1437 23.6029C20.9444 23.6029 24.8362 19.7087 24.8362 14.905C24.8362 10.1012 20.9444 6.20703 16.1437 6.20703C11.3429 6.20703 7.45117 10.1012 7.45117 14.905C7.45117 19.7087 11.3429 23.6029 16.1437 23.6029Z" fill="#DCE4EF"></path>
  <path d="M77.8558 23.603C82.6565 23.603 86.5483 19.7088 86.5483 14.905C86.5483 10.1013 82.6565 6.20711 77.8558 6.20711C73.0551 6.20711 69.1633 10.1013 69.1633 14.905C69.1633 19.7088 73.0551 23.603 77.8558 23.603Z" fill="#DCE4EF"></path>
  <path d="M27.2259 54.6817L23.9217 51.3754V31.4871L37.1893 44.763L27.2259 54.6817Z" fill="#725BFF"></path>
  <path d="M67.0285 54.6817L70.2818 51.4263L70.3326 31.4871L57.0651 44.763L67.0285 54.6817Z" fill="#FF7480"></path>
  <path d="M47.1312 54.7101L37.1747 64.6729L47.1313 74.6357L57.0878 64.6729L47.1312 54.7101Z" fill="#28E8A3"></path>
  <path d="M57.086 44.733L47.1294 54.6958L57.086 64.6586L67.0425 54.6958L57.086 44.733Z" fill="#FBCE13"></path>
  <path d="M37.1637 44.7508L27.2071 54.7136L37.1637 64.6764L47.1203 54.7136L37.1637 44.7508Z" fill="#11D9ED"></path>
  <path d="M85.4298 31.4871H70.2814V81.7928H85.4298V31.4871Z" fill="#DCE4EF"></path>
  <path d="M23.9217 31.4871H8.77318V81.7928H23.9215L23.9217 31.4871Z" fill="#DCE4EF"></path>
</svg>
