<svg width="336" height="258" viewBox="0 0 336 258" fill="none" xmlns="http://www.w3.org/2000/svg">
<path fill-rule="evenodd" clip-rule="evenodd" d="M225.996 189.456C223.679 189.456 221.49 189.902 219.434 190.796C217.39 191.685 215.562 192.887 214.042 194.406C212.479 195.926 211.275 197.711 210.384 199.759C209.49 201.815 209.045 204.048 209.045 206.365C209.045 208.676 209.445 210.909 210.341 212.97C211.23 215.015 212.433 216.844 213.953 218.364C215.473 219.884 217.302 221.087 219.347 221.977C221.404 222.871 223.637 223.316 225.996 223.316C228.309 223.316 230.498 222.916 232.559 222.02C234.606 221.13 236.391 219.926 237.909 218.408C239.426 216.891 240.674 215.063 241.565 213.014C242.459 210.957 242.905 208.725 242.905 206.408C242.905 204.09 242.458 201.902 241.565 199.846C240.674 197.798 239.471 196.015 237.957 194.456L237.953 194.452C236.438 192.937 234.654 191.688 232.602 190.796C230.546 189.902 228.313 189.456 225.996 189.456ZM0.389159 189.849C0.174232 189.849 0 190.023 0 190.238V222.579C0 222.793 0.174232 222.968 0.389159 222.968H5.40153C5.61646 222.968 5.79069 222.793 5.79069 222.579V204.829L13.7252 221.136C13.7903 221.27 13.9262 221.355 14.0751 221.355H17.4312C17.5802 221.355 17.716 221.27 17.7812 221.136L25.7157 204.829V222.579C25.7157 222.793 25.8899 222.968 26.1048 222.968H31.1172C31.3321 222.968 31.5064 222.793 31.5064 222.579V190.238C31.5064 190.023 31.3321 189.849 31.1172 189.849H26.8022C26.6531 189.849 26.517 189.934 26.452 190.068L15.7743 212.099L5.05409 190.068C4.98893 189.934 4.85308 189.849 4.70416 189.849H0.389159ZM51.2396 189.849C51.0822 189.849 50.9404 189.943 50.8801 190.089L38.153 220.773C38.0707 220.972 38.1648 221.199 38.3633 221.282L42.9834 223.199C43.1818 223.282 43.4093 223.188 43.4919 222.99L47.1841 214.12H58.8691L62.5613 222.99C62.6438 223.188 62.8714 223.282 63.0698 223.199L67.6899 221.282C67.8883 221.199 67.9825 220.972 67.9001 220.773L55.1731 190.089C55.1128 189.943 54.9709 189.849 54.8136 189.849H51.2396ZM74.955 189.849C74.7401 189.849 74.5659 190.023 74.5659 190.238V222.579C74.5659 222.793 74.7401 222.968 74.955 222.968H79.9674C80.1823 222.968 80.3566 222.793 80.3566 222.579V210.153H86.6262L93.8806 223.074C93.9858 223.261 94.2227 223.328 94.4101 223.223L98.7687 220.782C98.8589 220.732 98.9253 220.648 98.9532 220.548C98.9812 220.449 98.9684 220.342 98.9177 220.252L92.6788 209.165C93.4437 208.81 94.165 208.334 94.8161 207.798L94.8249 207.791C95.5477 207.158 96.2243 206.391 96.7667 205.578C97.3108 204.762 97.7207 203.897 97.9939 202.941C98.2622 202.002 98.4447 201.006 98.4447 200.001C98.4447 198.64 98.1721 197.324 97.6287 196.056L97.6266 196.051C97.0861 194.835 96.3628 193.748 95.454 192.839C94.5453 191.931 93.4584 191.207 92.2423 190.667L92.2376 190.665C90.9695 190.121 89.6534 189.849 88.2923 189.849H74.955ZM104.802 189.849C104.587 189.849 104.413 190.023 104.413 190.238V195.25C104.413 195.465 104.587 195.639 104.802 195.639H112.563V222.579C112.563 222.793 112.737 222.968 112.952 222.968H117.921C118.136 222.968 118.31 222.793 118.31 222.579V195.639H126.072C126.287 195.639 126.461 195.465 126.461 195.25V190.238C126.461 190.023 126.287 189.849 126.072 189.849H104.802ZM143.126 189.849C142.968 189.849 142.827 189.943 142.766 190.089L130.039 220.773C129.957 220.972 130.051 221.199 130.249 221.282L134.87 223.199C135.068 223.282 135.295 223.188 135.378 222.99L139.07 214.12H150.755L154.447 222.99C154.53 223.188 154.758 223.282 154.956 223.199L159.576 221.282C159.774 221.199 159.869 220.972 159.786 220.773L147.059 190.089C146.999 189.943 146.857 189.849 146.7 189.849H143.126ZM181.876 189.849C181.661 189.849 181.486 190.023 181.486 190.238V195.25C181.486 195.465 181.661 195.639 181.876 195.639H189.637V222.579C189.637 222.793 189.811 222.968 190.026 222.968H194.995C195.21 222.968 195.384 222.793 195.384 222.579V195.639H203.145C203.36 195.639 203.535 195.465 203.535 195.25V190.238C203.535 190.023 203.36 189.849 203.145 189.849H181.876ZM251.874 189.849C251.66 189.849 251.485 190.023 251.485 190.238V222.579C251.485 222.793 251.66 222.968 251.874 222.968H256.887C257.102 222.968 257.276 222.793 257.276 222.579V210.153H263.546L270.8 223.074C270.905 223.261 271.142 223.328 271.33 223.223L275.688 220.782C275.778 220.732 275.845 220.648 275.873 220.548C275.901 220.449 275.888 220.342 275.837 220.252L269.598 209.165C270.363 208.81 271.084 208.334 271.735 207.798L271.744 207.791C272.467 207.158 273.144 206.391 273.686 205.578C274.23 204.762 274.64 203.897 274.913 202.941C275.182 202.002 275.364 201.006 275.364 200.001C275.364 198.64 275.092 197.324 274.548 196.056L274.546 196.051C274.006 194.835 273.282 193.748 272.373 192.839C271.465 191.931 270.378 191.207 269.162 190.667L269.157 190.665C267.889 190.121 266.573 189.849 265.212 189.849H251.874ZM284.816 189.849C284.601 189.849 284.427 190.023 284.427 190.238V222.579C284.427 222.793 284.601 222.968 284.816 222.968H289.828C290.043 222.968 290.217 222.793 290.217 222.579V210.153H296.487L303.741 223.074C303.847 223.261 304.084 223.328 304.271 223.223L308.629 220.782C308.72 220.732 308.786 220.648 308.814 220.548C308.842 220.449 308.829 220.342 308.779 220.252L302.54 209.165C303.304 208.81 304.026 208.334 304.677 207.798L304.686 207.791C305.409 207.158 306.085 206.391 306.627 205.578C307.172 204.762 307.581 203.897 307.855 202.941C308.123 202.002 308.305 201.006 308.305 200.001C308.305 198.64 308.033 197.324 307.49 196.056L307.487 196.051C306.947 194.835 306.224 193.748 305.315 192.839C304.406 191.931 303.319 191.207 302.103 190.667L302.098 190.665C300.83 190.121 299.514 189.849 298.153 189.849H284.816ZM317.757 189.849C317.542 189.849 317.368 190.023 317.368 190.238V222.579C317.368 222.793 317.542 222.968 317.757 222.968H335.061C335.276 222.968 335.45 222.793 335.45 222.579V217.566C335.45 217.351 335.276 217.177 335.061 217.177H323.159V208.323H333.971C334.186 208.323 334.36 208.149 334.36 207.934V202.921C334.36 202.706 334.186 202.532 333.971 202.532H323.159V195.596H335.061C335.276 195.596 335.45 195.422 335.45 195.207V190.238C335.45 190.023 335.276 189.849 335.061 189.849H317.757ZM221.619 196.13C222.962 195.542 224.434 195.247 225.953 195.247C227.514 195.247 228.943 195.542 230.286 196.13C231.638 196.721 232.817 197.522 233.828 198.533C234.839 199.544 235.64 200.723 236.231 202.075C236.816 203.411 237.07 204.882 237.07 206.408C237.07 207.977 236.816 209.405 236.231 210.742C235.64 212.093 234.839 213.273 233.828 214.284C232.817 215.294 231.638 216.095 230.286 216.687C228.949 217.271 227.522 217.526 225.953 217.526C224.426 217.526 222.956 217.271 221.619 216.687C220.264 216.093 219.042 215.291 218.034 214.284C217.027 213.277 216.268 212.099 215.674 210.742C215.087 209.398 214.792 207.97 214.792 206.408C214.792 204.89 215.087 203.417 215.674 202.075C216.266 200.723 217.067 199.544 218.077 198.533C219.088 197.522 220.268 196.721 221.619 196.13ZM80.3566 204.363V195.683H88.2923C88.9126 195.683 89.4617 195.766 89.9598 195.996C90.4903 196.241 90.9739 196.564 91.3732 196.964C91.7693 197.36 92.0504 197.798 92.2975 198.334C92.5336 198.845 92.654 199.399 92.654 200.045C92.654 200.596 92.5365 201.153 92.2953 201.717C92.0487 202.25 91.7681 202.687 91.3732 203.082C90.9833 203.472 90.5065 203.754 89.9598 204.006C89.4468 204.243 88.8925 204.363 88.2923 204.363H80.3566ZM257.276 204.363V195.683H265.212C265.832 195.683 266.381 195.766 266.879 195.996C267.41 196.241 267.893 196.564 268.293 196.964C268.689 197.36 268.97 197.798 269.217 198.334C269.453 198.845 269.573 199.399 269.573 200.045C269.573 200.596 269.456 201.152 269.215 201.717C268.968 202.25 268.688 202.687 268.293 203.082C267.903 203.472 267.426 203.754 266.879 204.006C266.366 204.243 265.812 204.363 265.212 204.363H257.276ZM290.217 204.363V195.683H298.153C298.773 195.683 299.322 195.766 299.821 195.996C300.351 196.241 300.835 196.564 301.234 196.964C301.63 197.36 301.911 197.798 302.158 198.334C302.394 198.845 302.515 199.399 302.515 200.045C302.515 200.596 302.397 201.152 302.156 201.717C301.91 202.25 301.629 202.687 301.234 203.082C300.844 203.472 300.367 203.754 299.821 204.006C299.308 204.243 298.753 204.363 298.153 204.363H290.217ZM56.4549 208.329H49.5982L53.0266 200.019L56.4549 208.329ZM148.341 208.329H141.484L144.913 200.019L148.341 208.329Z" fill="#061E3A"/>
<path d="M48.9031 245.412C48.0871 245.412 47.3191 245.58 46.5991 245.892C45.8791 246.204 45.2311 246.636 44.7031 247.164C44.1511 247.716 43.7191 248.34 43.4071 249.06C43.0951 249.78 42.9511 250.548 42.9511 251.364C42.9511 252.18 43.0951 252.948 43.4071 253.668C43.7191 254.388 44.1511 255.036 44.7031 255.564C45.2311 256.116 45.8791 256.548 46.5991 256.86C47.3191 257.172 48.0871 257.316 48.9031 257.316C49.6951 257.316 50.4631 257.172 51.1831 256.86C51.9031 256.572 52.5271 256.14 53.1031 255.564L53.2471 255.42V257.124H54.8551V239.316H53.2471V247.308L53.1031 247.164C52.5271 246.612 51.9031 246.18 51.1831 245.868C50.4631 245.58 49.6951 245.412 48.9031 245.412ZM44.5591 251.364C44.5591 250.764 44.6551 250.212 44.8951 249.684C45.1111 249.156 45.4231 248.7 45.8311 248.292C46.2151 247.908 46.6951 247.596 47.2231 247.356C47.7511 247.14 48.3031 247.02 48.9031 247.02C49.5031 247.02 50.0791 247.14 50.6071 247.356C51.1351 247.596 51.5911 247.908 51.9751 248.292C52.3591 248.676 52.6711 249.132 52.8871 249.66C53.1271 250.188 53.2231 250.764 53.2231 251.364C53.2231 251.988 53.1271 252.54 52.8871 253.068C52.6711 253.596 52.3591 254.076 51.9751 254.46C51.5911 254.868 51.1351 255.18 50.6071 255.396C50.0791 255.636 49.5031 255.732 48.9031 255.732C48.2791 255.732 47.7271 255.636 47.1991 255.396C46.6711 255.18 46.1911 254.868 45.8071 254.46C45.4231 254.076 45.1111 253.596 44.8951 253.068C44.6551 252.54 44.5591 251.988 44.5591 251.364Z" fill="#061E3A"/>
<path d="M66.034 257.316C67.018 257.316 67.93 257.1 68.794 256.644C69.658 256.188 70.354 255.54 70.93 254.724L69.61 253.836C69.178 254.436 68.674 254.892 68.05 255.228C67.426 255.564 66.754 255.732 66.034 255.732C65.458 255.732 64.906 255.612 64.402 255.42C63.898 255.204 63.442 254.916 63.058 254.556C62.674 254.196 62.338 253.764 62.098 253.284C61.858 252.804 61.714 252.276 61.69 251.7H71.674V250.884C71.65 250.116 71.482 249.396 71.194 248.724C70.882 248.052 70.474 247.476 69.97 246.996C69.442 246.516 68.866 246.132 68.194 245.844C67.522 245.556 66.802 245.436 66.034 245.436C65.218 245.436 64.45 245.58 63.73 245.892C63.01 246.204 62.362 246.636 61.834 247.188C61.282 247.716 60.85 248.364 60.538 249.084C60.226 249.804 60.082 250.572 60.082 251.388C60.082 252.204 60.226 252.972 60.538 253.692C60.85 254.412 61.282 255.036 61.834 255.588C62.362 256.116 63.01 256.548 63.73 256.86C64.45 257.172 65.218 257.316 66.034 257.316ZM69.994 250.092H61.882C62.002 249.636 62.194 249.228 62.482 248.844C62.746 248.46 63.058 248.148 63.442 247.884C63.826 247.62 64.234 247.404 64.666 247.26C65.098 247.116 65.554 247.02 66.01 247.02C66.97 247.02 67.81 247.308 68.53 247.86C69.274 248.436 69.754 249.18 69.994 250.092Z" fill="#061E3A"/>
<path d="M79.7639 257.316C80.2679 257.316 80.7719 257.268 81.2519 257.124C81.7319 256.98 82.1399 256.788 82.5239 256.5C82.9079 256.236 83.1959 255.9 83.4359 255.492C83.6759 255.06 83.7959 254.58 83.7959 254.004C83.7959 252.996 83.4119 252.18 82.6439 251.556C82.3319 251.316 81.9719 251.1 81.5399 250.908C81.1079 250.716 80.6039 250.572 80.0039 250.452C79.1399 250.212 78.5399 249.948 78.2039 249.66C77.8919 249.396 77.7479 249.084 77.7719 248.7C77.7719 248.316 77.8439 248.004 78.0359 247.788C78.2039 247.572 78.3959 247.404 78.6359 247.308C78.8759 247.212 79.1159 247.14 79.3559 247.116C79.5959 247.068 79.7639 247.068 79.8839 247.068C80.3399 247.068 80.7479 247.14 81.1319 247.332C81.5159 247.524 81.7799 247.764 81.9479 248.1L83.3879 247.38C83.0759 246.804 82.5959 246.324 81.9719 245.988C81.3479 245.652 80.6519 245.484 79.8839 245.484C78.7799 245.484 77.8919 245.772 77.2199 246.348C76.5479 246.924 76.1879 247.716 76.1639 248.676C76.1159 249.54 76.4519 250.284 77.1719 250.884C77.7479 251.364 78.5639 251.724 79.6439 251.988C80.5799 252.228 81.2519 252.492 81.6599 252.804C82.0199 253.092 82.2119 253.5 82.2119 254.004C82.2119 254.1 82.1879 254.244 82.1399 254.436C82.0919 254.628 81.9959 254.844 81.8279 255.036C81.6599 255.228 81.4199 255.396 81.0839 255.54C80.7479 255.684 80.3159 255.756 79.7639 255.756C79.1879 255.756 78.6839 255.612 78.2519 255.324C77.8439 255.084 77.5319 254.748 77.3399 254.364L75.8999 255.036C76.2359 255.78 76.7639 256.356 77.4839 256.74C78.2039 257.124 78.9479 257.316 79.7639 257.316Z" fill="#061E3A"/>
<path d="M94.109 245.412C93.293 245.412 92.525 245.58 91.805 245.892C91.085 246.204 90.437 246.636 89.909 247.164C89.357 247.716 88.925 248.34 88.613 249.06C88.301 249.78 88.157 250.548 88.157 251.364C88.157 252.18 88.301 252.948 88.613 253.668C88.925 254.388 89.357 255.036 89.909 255.564C90.437 256.116 91.085 256.548 91.805 256.86C92.525 257.172 93.293 257.316 94.109 257.316C94.901 257.316 95.669 257.172 96.389 256.86C97.109 256.572 97.733 256.14 98.309 255.564L98.453 255.42V257.124H100.061V245.604H98.453V247.308L98.309 247.164C97.733 246.612 97.109 246.18 96.389 245.868C95.669 245.58 94.901 245.412 94.109 245.412ZM89.765 251.364C89.765 250.764 89.861 250.212 90.101 249.684C90.317 249.156 90.629 248.7 91.037 248.292C91.421 247.908 91.901 247.596 92.429 247.356C92.957 247.14 93.509 247.02 94.109 247.02C94.709 247.02 95.261 247.14 95.789 247.356C96.317 247.596 96.773 247.908 97.181 248.292C97.565 248.7 97.877 249.156 98.117 249.684C98.333 250.212 98.453 250.764 98.453 251.364C98.453 251.988 98.333 252.54 98.117 253.068C97.877 253.596 97.565 254.076 97.181 254.46C96.797 254.868 96.341 255.18 95.813 255.396C95.285 255.636 94.709 255.732 94.109 255.732C93.485 255.732 92.933 255.636 92.405 255.396C91.877 255.18 91.397 254.868 91.013 254.46C90.629 254.076 90.317 253.596 90.101 253.068C89.861 252.54 89.765 251.988 89.765 251.364Z" fill="#061E3A"/>
<path d="M105.872 245.748V257.124H107.456V249.108C108.128 248.148 109.376 247.332 110.936 247.332C111.44 247.332 111.872 247.38 112.304 247.524L112.736 245.988C112.064 245.796 111.464 245.724 110.936 245.724C109.472 245.724 108.296 246.228 107.456 246.9V245.748H105.872Z" fill="#061E3A"/>
<path d="M116.863 245.748V257.124H118.447V249.108C119.119 248.148 120.367 247.332 121.927 247.332C122.431 247.332 122.863 247.38 123.295 247.524L123.727 245.988C123.055 245.796 122.455 245.724 121.927 245.724C120.463 245.724 119.287 246.228 118.447 246.9V245.748H116.863Z" fill="#061E3A"/>
<path d="M132.845 257.316C133.661 257.316 134.429 257.172 135.149 256.86C135.869 256.548 136.493 256.116 137.021 255.588C137.549 255.06 137.981 254.412 138.293 253.692C138.605 252.972 138.773 252.204 138.773 251.388C138.773 250.572 138.605 249.78 138.293 249.06C137.981 248.34 137.549 247.692 137.021 247.164C136.493 246.636 135.869 246.204 135.149 245.892C134.429 245.58 133.661 245.436 132.845 245.436C132.005 245.436 131.237 245.58 130.517 245.892C129.797 246.204 129.149 246.636 128.621 247.164C128.093 247.692 127.661 248.34 127.349 249.06C127.037 249.78 126.893 250.572 126.893 251.388C126.893 252.204 127.037 252.996 127.349 253.716C127.661 254.436 128.093 255.06 128.621 255.588C129.149 256.116 129.797 256.548 130.517 256.86C131.237 257.172 132.005 257.316 132.845 257.316ZM132.845 247.044C133.445 247.044 133.997 247.14 134.525 247.38C135.053 247.596 135.509 247.908 135.917 248.316C136.301 248.7 136.613 249.156 136.853 249.684C137.069 250.212 137.189 250.764 137.189 251.388C137.189 251.964 137.069 252.54 136.853 253.068C136.613 253.596 136.301 254.076 135.917 254.46C135.509 254.844 135.053 255.156 134.525 255.396C133.997 255.636 133.445 255.756 132.845 255.756C132.245 255.756 131.669 255.636 131.141 255.396C130.613 255.156 130.133 254.844 129.749 254.46C129.365 254.076 129.053 253.596 128.813 253.068C128.573 252.54 128.477 251.964 128.477 251.388C128.477 250.764 128.573 250.212 128.813 249.684C129.029 249.156 129.341 248.676 129.749 248.292C130.133 247.908 130.613 247.596 131.141 247.38C131.669 247.14 132.221 247.044 132.845 247.044Z" fill="#061E3A"/>
<path d="M144.022 239.316V257.124H145.606V239.316H144.022Z" fill="#061E3A"/>
<path d="M151.802 239.316V257.124H153.386V239.316H151.802Z" fill="#061E3A"/>
<path d="M164.597 257.316C165.413 257.316 166.181 257.172 166.901 256.86C167.621 256.548 168.245 256.116 168.773 255.588C169.301 255.06 169.733 254.412 170.045 253.692C170.357 252.972 170.525 252.204 170.525 251.388C170.525 250.572 170.357 249.78 170.045 249.06C169.733 248.34 169.301 247.692 168.773 247.164C168.245 246.636 167.621 246.204 166.901 245.892C166.181 245.58 165.413 245.436 164.597 245.436C163.757 245.436 162.989 245.58 162.269 245.892C161.549 246.204 160.901 246.636 160.373 247.164C159.845 247.692 159.413 248.34 159.101 249.06C158.789 249.78 158.645 250.572 158.645 251.388C158.645 252.204 158.789 252.996 159.101 253.716C159.413 254.436 159.845 255.06 160.373 255.588C160.901 256.116 161.549 256.548 162.269 256.86C162.989 257.172 163.757 257.316 164.597 257.316ZM164.597 247.044C165.197 247.044 165.749 247.14 166.277 247.38C166.805 247.596 167.261 247.908 167.669 248.316C168.053 248.7 168.365 249.156 168.605 249.684C168.821 250.212 168.941 250.764 168.941 251.388C168.941 251.964 168.821 252.54 168.605 253.068C168.365 253.596 168.053 254.076 167.669 254.46C167.261 254.844 166.805 255.156 166.277 255.396C165.749 255.636 165.197 255.756 164.597 255.756C163.997 255.756 163.421 255.636 162.893 255.396C162.365 255.156 161.885 254.844 161.501 254.46C161.117 254.076 160.805 253.596 160.565 253.068C160.325 252.54 160.229 251.964 160.229 251.388C160.229 250.764 160.325 250.212 160.565 249.684C160.781 249.156 161.093 248.676 161.501 248.292C161.885 247.908 162.365 247.596 162.893 247.38C163.421 247.14 163.973 247.044 164.597 247.044Z" fill="#061E3A"/>
<path d="M184.293 245.748V247.332H186.813V257.124H188.421V247.332H192.045V245.748H188.397V242.508C188.397 241.62 189.093 240.9 190.005 240.9C190.845 240.9 191.445 241.452 191.805 242.028L193.173 241.236C192.597 240.228 191.493 239.316 190.005 239.316C188.157 239.316 186.813 240.708 186.813 242.508V245.748H184.293Z" fill="#061E3A"/>
<path d="M206.353 245.772H204.769V252.108C204.769 254.148 203.401 255.732 201.361 255.732C199.369 255.732 197.953 254.244 197.953 252.276V245.772H196.369V252.276C196.369 255.156 198.457 257.292 201.337 257.292C202.825 257.292 204.025 256.62 204.745 255.732V257.124H206.329L206.353 245.772Z" fill="#061E3A"/>
<path d="M212.542 239.316V257.124H214.126V239.316H212.542Z" fill="#061E3A"/>
<path d="M220.322 239.316V257.124H221.906V239.316H220.322Z" fill="#061E3A"/>
<path d="M231.005 257.316C231.509 257.316 232.013 257.268 232.493 257.124C232.973 256.98 233.381 256.788 233.765 256.5C234.149 256.236 234.437 255.9 234.677 255.492C234.917 255.06 235.037 254.58 235.037 254.004C235.037 252.996 234.653 252.18 233.885 251.556C233.573 251.316 233.213 251.1 232.781 250.908C232.349 250.716 231.845 250.572 231.245 250.452C230.381 250.212 229.781 249.948 229.445 249.66C229.133 249.396 228.989 249.084 229.013 248.7C229.013 248.316 229.085 248.004 229.277 247.788C229.445 247.572 229.637 247.404 229.877 247.308C230.117 247.212 230.357 247.14 230.597 247.116C230.837 247.068 231.005 247.068 231.125 247.068C231.581 247.068 231.989 247.14 232.373 247.332C232.757 247.524 233.021 247.764 233.189 248.1L234.629 247.38C234.317 246.804 233.837 246.324 233.213 245.988C232.589 245.652 231.893 245.484 231.125 245.484C230.021 245.484 229.133 245.772 228.461 246.348C227.789 246.924 227.429 247.716 227.405 248.676C227.357 249.54 227.693 250.284 228.413 250.884C228.989 251.364 229.805 251.724 230.885 251.988C231.821 252.228 232.493 252.492 232.901 252.804C233.261 253.092 233.453 253.5 233.453 254.004C233.453 254.1 233.429 254.244 233.381 254.436C233.333 254.628 233.237 254.844 233.069 255.036C232.901 255.228 232.661 255.396 232.325 255.54C231.989 255.684 231.557 255.756 231.005 255.756C230.429 255.756 229.925 255.612 229.493 255.324C229.085 255.084 228.773 254.748 228.581 254.364L227.141 255.036C227.477 255.78 228.005 256.356 228.725 256.74C229.445 257.124 230.189 257.316 231.005 257.316Z" fill="#061E3A"/>
<path d="M238.798 247.332V245.748H241.366V239.508H242.974V245.748H246.574V247.332H242.95V254.124C242.95 255.036 243.646 255.732 244.558 255.732C245.398 255.732 245.998 255.204 246.358 254.604L247.726 255.396C247.15 256.428 246.046 257.316 244.558 257.316C242.71 257.316 241.366 255.948 241.366 254.124V247.332H238.798Z" fill="#061E3A"/>
<path d="M256.833 245.412C256.017 245.412 255.249 245.58 254.529 245.892C253.809 246.204 253.161 246.636 252.633 247.164C252.081 247.716 251.649 248.34 251.337 249.06C251.025 249.78 250.881 250.548 250.881 251.364C250.881 252.18 251.025 252.948 251.337 253.668C251.649 254.388 252.081 255.036 252.633 255.564C253.161 256.116 253.809 256.548 254.529 256.86C255.249 257.172 256.017 257.316 256.833 257.316C257.625 257.316 258.393 257.172 259.113 256.86C259.833 256.572 260.457 256.14 261.033 255.564L261.177 255.42V257.124H262.785V245.604H261.177V247.308L261.033 247.164C260.457 246.612 259.833 246.18 259.113 245.868C258.393 245.58 257.625 245.412 256.833 245.412ZM252.489 251.364C252.489 250.764 252.585 250.212 252.825 249.684C253.041 249.156 253.353 248.7 253.761 248.292C254.145 247.908 254.625 247.596 255.153 247.356C255.681 247.14 256.233 247.02 256.833 247.02C257.433 247.02 257.985 247.14 258.513 247.356C259.041 247.596 259.497 247.908 259.905 248.292C260.289 248.7 260.601 249.156 260.841 249.684C261.057 250.212 261.177 250.764 261.177 251.364C261.177 251.988 261.057 252.54 260.841 253.068C260.601 253.596 260.289 254.076 259.905 254.46C259.521 254.868 259.065 255.18 258.537 255.396C258.009 255.636 257.433 255.732 256.833 255.732C256.209 255.732 255.657 255.636 255.129 255.396C254.601 255.18 254.121 254.868 253.737 254.46C253.353 254.076 253.041 253.596 252.825 253.068C252.585 252.54 252.489 251.988 252.489 251.364Z" fill="#061E3A"/>
<path d="M273.588 257.316C274.548 257.316 275.484 257.1 276.348 256.644C277.212 256.212 277.908 255.564 278.484 254.748L277.188 253.836C276.756 254.436 276.228 254.892 275.604 255.228C274.98 255.564 274.308 255.732 273.588 255.732C272.988 255.732 272.436 255.636 271.908 255.396C271.38 255.156 270.9 254.844 270.516 254.46C270.108 254.076 269.796 253.596 269.58 253.068C269.34 252.54 269.244 251.964 269.244 251.388C269.244 250.764 269.34 250.212 269.58 249.684C269.796 249.156 270.108 248.676 270.492 248.292C270.876 247.908 271.356 247.596 271.884 247.38C272.412 247.14 272.964 247.044 273.588 247.044C274.308 247.044 274.98 247.188 275.604 247.524C276.228 247.86 276.756 248.316 277.164 248.916L278.46 248.004C277.908 247.188 277.188 246.54 276.324 246.108C275.46 245.652 274.548 245.436 273.564 245.436C272.748 245.436 271.98 245.58 271.26 245.892C270.54 246.204 269.916 246.636 269.364 247.188C268.836 247.716 268.404 248.364 268.092 249.084C267.78 249.804 267.612 250.572 267.612 251.388C267.612 252.204 267.78 252.972 268.092 253.692C268.404 254.412 268.836 255.036 269.364 255.588C269.916 256.116 270.54 256.548 271.26 256.86C271.98 257.172 272.772 257.316 273.588 257.316Z" fill="#061E3A"/>
<path d="M283.547 257.124H285.131V252.636L291.563 257.244L292.499 255.948L285.635 251.028L292.283 246.588L291.395 245.244L285.131 249.444V239.316H283.547V257.124Z" fill="#061E3A"/>
<path fill-rule="evenodd" clip-rule="evenodd" d="M230.729 98.825V5.61034H193.025L170.992 21.6799C170.035 22.3768 168.881 22.7522 167.697 22.7522C166.513 22.7522 165.359 22.3768 164.402 21.6799L142.436 5.73913H104.726V98.9649H137.588V67.0498C137.588 66.0322 137.865 65.034 138.39 64.1622C138.915 63.2905 139.668 62.5783 140.567 62.1022C141.466 61.6261 142.478 61.404 143.494 61.4599C144.51 61.5157 145.492 61.8474 146.333 62.4193L167.683 76.9155L189.111 62.2849C189.952 61.7103 190.935 61.3761 191.952 61.3184C192.969 61.2607 193.983 61.4817 194.884 61.9575C195.785 62.4333 196.539 63.1459 197.065 64.0186C197.59 64.8913 197.868 65.8909 197.868 66.9098V98.825H230.729ZM192.605 0.0111921H231.849L231.844 0C233.062 0.0308014 234.218 0.54412 235.058 1.42713C235.898 2.31013 236.353 3.49056 236.323 4.70889V99.7264C236.353 100.945 235.898 102.125 235.058 103.008C234.218 103.891 233.062 104.405 231.844 104.435H196.743C195.524 104.405 194.368 103.891 193.528 103.008C192.688 102.125 192.233 100.945 192.263 99.7264V66.921L170.208 81.9771C169.475 82.5073 168.593 82.7926 167.689 82.7926C166.784 82.7926 165.902 82.5073 165.169 81.9771L143.187 67.0498V99.8384C143.217 101.057 142.762 102.237 141.922 103.12C141.082 104.003 139.926 104.516 138.707 104.547H103.606C102.388 104.516 101.232 104.003 100.392 103.12C99.5519 102.237 99.0969 101.057 99.127 99.8384V4.86006C99.0969 3.64173 99.5519 2.46132 100.392 1.57831C101.232 0.695308 102.388 0.181972 103.606 0.151171H142.856C143.772 0.153792 144.664 0.445797 145.404 0.985456L167.694 17.1558L190.052 0.851064C190.792 0.306544 191.686 0.0123208 192.605 0.0111921ZM155.203 90.9238V110.79C155.203 112.275 154.613 113.699 153.563 114.75C152.512 115.8 151.088 116.389 149.603 116.389H104.749V136.406L230.729 136.278V116.395H185.875C184.39 116.395 182.965 115.805 181.915 114.755C180.865 113.705 180.275 112.281 180.275 110.796V90.9806L171.115 97.6267C170.162 98.3146 169.016 98.6848 167.84 98.6848C166.664 98.6848 165.518 98.3146 164.564 97.6267L155.203 90.9238ZM152.051 84.1016C152.545 83.8832 153.078 83.7644 153.618 83.7521H153.629C154.435 83.7548 155.219 84.0136 155.869 84.4911L167.857 93.0914L179.615 84.5527C180.262 84.0702 181.047 83.8072 181.854 83.8024C182.395 83.8141 182.928 83.9323 183.423 84.1504C183.918 84.3684 184.365 84.682 184.739 85.0732C185.112 85.4644 185.405 85.9254 185.6 86.4299C185.795 86.9344 185.888 87.4723 185.875 88.013V110.807H231.827C233.045 110.838 234.201 111.351 235.041 112.234C235.881 113.117 236.336 114.298 236.306 115.516V137.162C236.336 138.381 235.881 139.561 235.041 140.444C234.201 141.327 233.045 141.84 231.827 141.871L103.606 142C102.389 141.969 101.234 141.457 100.394 140.575C99.5541 139.693 99.0984 138.514 99.127 137.297V115.499C99.0969 114.281 99.5519 113.1 100.392 112.217C101.232 111.334 102.388 110.821 103.606 110.79H149.603V87.9626C149.59 87.4224 149.683 86.8848 149.878 86.3807C150.072 85.8766 150.365 85.4159 150.737 85.0248C151.11 84.6337 151.557 84.3199 152.051 84.1016Z" fill="url(#paint0_linear_706_174)"/>
<defs>
<linearGradient id="paint0_linear_706_174" x1="133.42" y1="9.50191" x2="205.631" y2="130.347" gradientUnits="userSpaceOnUse">
<stop offset="0.1774" stop-color="#11EEA9"/>
<stop offset="0.6975" stop-color="#0395FC"/>
<stop offset="1" stop-color="#0054FF"/>
</linearGradient>
</defs>
</svg>
